%TF.GenerationSoftware,KiCad,Pcbnew,9.0.5*%
%TF.CreationDate,2026-02-27T11:23:15-08:00*%
%TF.ProjectId,copyOfMainPCB,636f7079-4f66-44d6-9169-6e5043422e6b,rev?*%
%TF.SameCoordinates,Original*%
%TF.FileFunction,Paste,Top*%
%TF.FilePolarity,Positive*%
%FSLAX46Y46*%
G04 Gerber Fmt 4.6, Leading zero omitted, Abs format (unit mm)*
G04 Created by KiCad (PCBNEW 9.0.5) date 2026-02-27 11:23:15*
%MOMM*%
%LPD*%
G01*
G04 APERTURE LIST*
G04 Aperture macros list*
%AMRoundRect*
0 Rectangle with rounded corners*
0 $1 Rounding radius*
0 $2 $3 $4 $5 $6 $7 $8 $9 X,Y pos of 4 corners*
0 Add a 4 corners polygon primitive as box body*
4,1,4,$2,$3,$4,$5,$6,$7,$8,$9,$2,$3,0*
0 Add four circle primitives for the rounded corners*
1,1,$1+$1,$2,$3*
1,1,$1+$1,$4,$5*
1,1,$1+$1,$6,$7*
1,1,$1+$1,$8,$9*
0 Add four rect primitives between the rounded corners*
20,1,$1+$1,$2,$3,$4,$5,0*
20,1,$1+$1,$4,$5,$6,$7,0*
20,1,$1+$1,$6,$7,$8,$9,0*
20,1,$1+$1,$8,$9,$2,$3,0*%
G04 Aperture macros list end*
%ADD10C,0.010000*%
%ADD11RoundRect,0.250000X-0.625000X0.375000X-0.625000X-0.375000X0.625000X-0.375000X0.625000X0.375000X0*%
%ADD12RoundRect,0.250000X-0.312500X-0.625000X0.312500X-0.625000X0.312500X0.625000X-0.312500X0.625000X0*%
%ADD13RoundRect,0.250000X-0.650000X1.000000X-0.650000X-1.000000X0.650000X-1.000000X0.650000X1.000000X0*%
%ADD14R,3.100000X2.400000*%
%ADD15R,0.500000X2.200000*%
%ADD16RoundRect,0.250000X0.625000X-0.312500X0.625000X0.312500X-0.625000X0.312500X-0.625000X-0.312500X0*%
%ADD17R,1.193800X2.336800*%
%ADD18RoundRect,0.075000X0.075000X-0.650000X0.075000X0.650000X-0.075000X0.650000X-0.075000X-0.650000X0*%
%ADD19RoundRect,0.250000X-0.625000X0.312500X-0.625000X-0.312500X0.625000X-0.312500X0.625000X0.312500X0*%
%ADD20RoundRect,0.250000X-0.325000X-0.650000X0.325000X-0.650000X0.325000X0.650000X-0.325000X0.650000X0*%
%ADD21RoundRect,0.250000X0.312500X0.625000X-0.312500X0.625000X-0.312500X-0.625000X0.312500X-0.625000X0*%
%ADD22RoundRect,0.250000X1.000000X0.650000X-1.000000X0.650000X-1.000000X-0.650000X1.000000X-0.650000X0*%
G04 APERTURE END LIST*
D10*
%TO.C,S2*%
X105300000Y-109125000D02*
X105100000Y-109125000D01*
X105100000Y-109625000D01*
X104400000Y-109625000D01*
X104400000Y-109125000D01*
X104200000Y-109125000D01*
X104200000Y-108925000D01*
X105300000Y-108925000D01*
X105300000Y-109125000D01*
G36*
X105300000Y-109125000D02*
G01*
X105100000Y-109125000D01*
X105100000Y-109625000D01*
X104400000Y-109625000D01*
X104400000Y-109125000D01*
X104200000Y-109125000D01*
X104200000Y-108925000D01*
X105300000Y-108925000D01*
X105300000Y-109125000D01*
G37*
X105100000Y-113875000D02*
X105300000Y-113875000D01*
X105300000Y-114075000D01*
X104200000Y-114075000D01*
X104200000Y-113875000D01*
X104400000Y-113875000D01*
X104400000Y-113375000D01*
X105100000Y-113375000D01*
X105100000Y-113875000D01*
G36*
X105100000Y-113875000D02*
G01*
X105300000Y-113875000D01*
X105300000Y-114075000D01*
X104200000Y-114075000D01*
X104200000Y-113875000D01*
X104400000Y-113875000D01*
X104400000Y-113375000D01*
X105100000Y-113375000D01*
X105100000Y-113875000D01*
G37*
X108800000Y-109125000D02*
X108600000Y-109125000D01*
X108600000Y-109625000D01*
X107900000Y-109625000D01*
X107900000Y-109125000D01*
X107700000Y-109125000D01*
X107700000Y-108925000D01*
X108800000Y-108925000D01*
X108800000Y-109125000D01*
G36*
X108800000Y-109125000D02*
G01*
X108600000Y-109125000D01*
X108600000Y-109625000D01*
X107900000Y-109625000D01*
X107900000Y-109125000D01*
X107700000Y-109125000D01*
X107700000Y-108925000D01*
X108800000Y-108925000D01*
X108800000Y-109125000D01*
G37*
X108600000Y-113875000D02*
X108800000Y-113875000D01*
X108800000Y-114075000D01*
X107700000Y-114075000D01*
X107700000Y-113875000D01*
X107900000Y-113875000D01*
X107900000Y-113375000D01*
X108600000Y-113375000D01*
X108600000Y-113875000D01*
G36*
X108600000Y-113875000D02*
G01*
X108800000Y-113875000D01*
X108800000Y-114075000D01*
X107700000Y-114075000D01*
X107700000Y-113875000D01*
X107900000Y-113875000D01*
X107900000Y-113375000D01*
X108600000Y-113375000D01*
X108600000Y-113875000D01*
G37*
%TO.C,S1*%
X111450000Y-109125000D02*
X111250000Y-109125000D01*
X111250000Y-109625000D01*
X110550000Y-109625000D01*
X110550000Y-109125000D01*
X110350000Y-109125000D01*
X110350000Y-108925000D01*
X111450000Y-108925000D01*
X111450000Y-109125000D01*
G36*
X111450000Y-109125000D02*
G01*
X111250000Y-109125000D01*
X111250000Y-109625000D01*
X110550000Y-109625000D01*
X110550000Y-109125000D01*
X110350000Y-109125000D01*
X110350000Y-108925000D01*
X111450000Y-108925000D01*
X111450000Y-109125000D01*
G37*
X111250000Y-113875000D02*
X111450000Y-113875000D01*
X111450000Y-114075000D01*
X110350000Y-114075000D01*
X110350000Y-113875000D01*
X110550000Y-113875000D01*
X110550000Y-113375000D01*
X111250000Y-113375000D01*
X111250000Y-113875000D01*
G36*
X111250000Y-113875000D02*
G01*
X111450000Y-113875000D01*
X111450000Y-114075000D01*
X110350000Y-114075000D01*
X110350000Y-113875000D01*
X110550000Y-113875000D01*
X110550000Y-113375000D01*
X111250000Y-113375000D01*
X111250000Y-113875000D01*
G37*
X114950000Y-109125000D02*
X114750000Y-109125000D01*
X114750000Y-109625000D01*
X114050000Y-109625000D01*
X114050000Y-109125000D01*
X113850000Y-109125000D01*
X113850000Y-108925000D01*
X114950000Y-108925000D01*
X114950000Y-109125000D01*
G36*
X114950000Y-109125000D02*
G01*
X114750000Y-109125000D01*
X114750000Y-109625000D01*
X114050000Y-109625000D01*
X114050000Y-109125000D01*
X113850000Y-109125000D01*
X113850000Y-108925000D01*
X114950000Y-108925000D01*
X114950000Y-109125000D01*
G37*
X114750000Y-113875000D02*
X114950000Y-113875000D01*
X114950000Y-114075000D01*
X113850000Y-114075000D01*
X113850000Y-113875000D01*
X114050000Y-113875000D01*
X114050000Y-113375000D01*
X114750000Y-113375000D01*
X114750000Y-113875000D01*
G36*
X114750000Y-113875000D02*
G01*
X114950000Y-113875000D01*
X114950000Y-114075000D01*
X113850000Y-114075000D01*
X113850000Y-113875000D01*
X114050000Y-113875000D01*
X114050000Y-113375000D01*
X114750000Y-113375000D01*
X114750000Y-113875000D01*
G37*
%TO.C,S3*%
X99150000Y-109125000D02*
X98950000Y-109125000D01*
X98950000Y-109625000D01*
X98250000Y-109625000D01*
X98250000Y-109125000D01*
X98050000Y-109125000D01*
X98050000Y-108925000D01*
X99150000Y-108925000D01*
X99150000Y-109125000D01*
G36*
X99150000Y-109125000D02*
G01*
X98950000Y-109125000D01*
X98950000Y-109625000D01*
X98250000Y-109625000D01*
X98250000Y-109125000D01*
X98050000Y-109125000D01*
X98050000Y-108925000D01*
X99150000Y-108925000D01*
X99150000Y-109125000D01*
G37*
X98950000Y-113875000D02*
X99150000Y-113875000D01*
X99150000Y-114075000D01*
X98050000Y-114075000D01*
X98050000Y-113875000D01*
X98250000Y-113875000D01*
X98250000Y-113375000D01*
X98950000Y-113375000D01*
X98950000Y-113875000D01*
G36*
X98950000Y-113875000D02*
G01*
X99150000Y-113875000D01*
X99150000Y-114075000D01*
X98050000Y-114075000D01*
X98050000Y-113875000D01*
X98250000Y-113875000D01*
X98250000Y-113375000D01*
X98950000Y-113375000D01*
X98950000Y-113875000D01*
G37*
X102650000Y-109125000D02*
X102450000Y-109125000D01*
X102450000Y-109625000D01*
X101750000Y-109625000D01*
X101750000Y-109125000D01*
X101550000Y-109125000D01*
X101550000Y-108925000D01*
X102650000Y-108925000D01*
X102650000Y-109125000D01*
G36*
X102650000Y-109125000D02*
G01*
X102450000Y-109125000D01*
X102450000Y-109625000D01*
X101750000Y-109625000D01*
X101750000Y-109125000D01*
X101550000Y-109125000D01*
X101550000Y-108925000D01*
X102650000Y-108925000D01*
X102650000Y-109125000D01*
G37*
X102450000Y-113875000D02*
X102650000Y-113875000D01*
X102650000Y-114075000D01*
X101550000Y-114075000D01*
X101550000Y-113875000D01*
X101750000Y-113875000D01*
X101750000Y-113375000D01*
X102450000Y-113375000D01*
X102450000Y-113875000D01*
G36*
X102450000Y-113875000D02*
G01*
X102650000Y-113875000D01*
X102650000Y-114075000D01*
X101550000Y-114075000D01*
X101550000Y-113875000D01*
X101750000Y-113875000D01*
X101750000Y-113375000D01*
X102450000Y-113375000D01*
X102450000Y-113875000D01*
G37*
%TD*%
D11*
%TO.C,D7*%
X97860000Y-118490000D03*
X97860000Y-121290000D03*
%TD*%
%TO.C,D3*%
X111420000Y-118490000D03*
X111420000Y-121290000D03*
%TD*%
D12*
%TO.C,R9*%
X69037500Y-91310000D03*
X71962500Y-91310000D03*
%TD*%
D11*
%TO.C,D1*%
X118200000Y-118490000D03*
X118200000Y-121290000D03*
%TD*%
D13*
%TO.C,D8*%
X126895600Y-73500000D03*
X126895600Y-77500000D03*
%TD*%
D14*
%TO.C,U2*%
X127200000Y-120650000D03*
D15*
X125295000Y-123525000D03*
X126565000Y-123525000D03*
X127835000Y-123525000D03*
X129105000Y-123525000D03*
X129105000Y-117775000D03*
X127835000Y-117775000D03*
X126565000Y-117775000D03*
X125295000Y-117775000D03*
%TD*%
D16*
%TO.C,R13*%
X128000000Y-106000000D03*
X128000000Y-103075000D03*
%TD*%
D12*
%TO.C,R8*%
X69037500Y-88000000D03*
X71962500Y-88000000D03*
%TD*%
D17*
%TO.C,L2*%
X131500000Y-75500000D03*
X134395600Y-75500000D03*
%TD*%
D18*
%TO.C,U1*%
X129895600Y-98200000D03*
X130395600Y-98200000D03*
X130895600Y-98200000D03*
X131395600Y-98200000D03*
X131895600Y-98200000D03*
X131895600Y-93800000D03*
X131395600Y-93800000D03*
X130895600Y-93800000D03*
X130395600Y-93800000D03*
X129895600Y-93800000D03*
%TD*%
D19*
%TO.C,R5*%
X105000000Y-124037500D03*
X105000000Y-126962500D03*
%TD*%
%TO.C,R4*%
X108310000Y-124037500D03*
X108310000Y-126962500D03*
%TD*%
D11*
%TO.C,D6*%
X101250000Y-118490000D03*
X101250000Y-121290000D03*
%TD*%
D19*
%TO.C,R6*%
X101690000Y-124037500D03*
X101690000Y-126962500D03*
%TD*%
D11*
%TO.C,D2*%
X114810000Y-118490000D03*
X114810000Y-121290000D03*
%TD*%
D20*
%TO.C,C1*%
X123050000Y-91500000D03*
X126000000Y-91500000D03*
%TD*%
D19*
%TO.C,R3*%
X111620000Y-124037500D03*
X111620000Y-126962500D03*
%TD*%
D20*
%TO.C,C3*%
X135550000Y-89000000D03*
X138500000Y-89000000D03*
%TD*%
D19*
%TO.C,R2*%
X114930000Y-124037500D03*
X114930000Y-126962500D03*
%TD*%
D11*
%TO.C,D4*%
X108030000Y-118490000D03*
X108030000Y-121290000D03*
%TD*%
D21*
%TO.C,R10*%
X131858100Y-89262500D03*
X128933100Y-89262500D03*
%TD*%
D19*
%TO.C,R1*%
X118240000Y-124037500D03*
X118240000Y-126962500D03*
%TD*%
D22*
%TO.C,D9*%
X129200000Y-112000000D03*
X125200000Y-112000000D03*
%TD*%
D19*
%TO.C,R7*%
X97570000Y-124146000D03*
X97570000Y-127071000D03*
%TD*%
D11*
%TO.C,D5*%
X104640000Y-118490000D03*
X104640000Y-121290000D03*
%TD*%
M02*
