%TF.GenerationSoftware,KiCad,Pcbnew,9.0.5*%
%TF.CreationDate,2026-02-27T11:23:15-08:00*%
%TF.ProjectId,copyOfMainPCB,636f7079-4f66-44d6-9169-6e5043422e6b,rev?*%
%TF.SameCoordinates,Original*%
%TF.FileFunction,Profile,NP*%
%FSLAX46Y46*%
G04 Gerber Fmt 4.6, Leading zero omitted, Abs format (unit mm)*
G04 Created by KiCad (PCBNEW 9.0.5) date 2026-02-27 11:23:15*
%MOMM*%
%LPD*%
G01*
G04 APERTURE LIST*
%ADD10C,0.150000*%
%TA.AperFunction,Profile*%
%ADD11C,0.050000*%
%TD*%
%TA.AperFunction,Profile*%
%ADD12C,0.010000*%
%TD*%
G04 APERTURE END LIST*
D10*
X103190476Y-135804819D02*
X103857142Y-135804819D01*
X103857142Y-135804819D02*
X103428571Y-136804819D01*
X104714285Y-135804819D02*
X104238095Y-135804819D01*
X104238095Y-135804819D02*
X104190476Y-136281009D01*
X104190476Y-136281009D02*
X104238095Y-136233390D01*
X104238095Y-136233390D02*
X104333333Y-136185771D01*
X104333333Y-136185771D02*
X104571428Y-136185771D01*
X104571428Y-136185771D02*
X104666666Y-136233390D01*
X104666666Y-136233390D02*
X104714285Y-136281009D01*
X104714285Y-136281009D02*
X104761904Y-136376247D01*
X104761904Y-136376247D02*
X104761904Y-136614342D01*
X104761904Y-136614342D02*
X104714285Y-136709580D01*
X104714285Y-136709580D02*
X104666666Y-136757200D01*
X104666666Y-136757200D02*
X104571428Y-136804819D01*
X104571428Y-136804819D02*
X104333333Y-136804819D01*
X104333333Y-136804819D02*
X104238095Y-136757200D01*
X104238095Y-136757200D02*
X104190476Y-136709580D01*
D11*
X66500000Y-137000000D02*
X66500000Y-136913580D01*
X141500000Y-137000000D02*
X141500000Y-136913580D01*
X66500000Y-137500000D02*
X141500000Y-137500000D01*
X66500000Y-137500000D02*
X67626504Y-136913579D01*
X66500000Y-137500000D02*
X67626504Y-138086421D01*
X141500000Y-137500000D02*
X140373496Y-138086421D01*
X141500000Y-137500000D02*
X140373496Y-136913579D01*
D10*
X142804819Y-99773808D02*
X142804819Y-99107142D01*
X142804819Y-99107142D02*
X143804819Y-99535713D01*
X142804819Y-98535713D02*
X142804819Y-98440475D01*
X142804819Y-98440475D02*
X142852438Y-98345237D01*
X142852438Y-98345237D02*
X142900057Y-98297618D01*
X142900057Y-98297618D02*
X142995295Y-98249999D01*
X142995295Y-98249999D02*
X143185771Y-98202380D01*
X143185771Y-98202380D02*
X143423866Y-98202380D01*
X143423866Y-98202380D02*
X143614342Y-98249999D01*
X143614342Y-98249999D02*
X143709580Y-98297618D01*
X143709580Y-98297618D02*
X143757200Y-98345237D01*
X143757200Y-98345237D02*
X143804819Y-98440475D01*
X143804819Y-98440475D02*
X143804819Y-98535713D01*
X143804819Y-98535713D02*
X143757200Y-98630951D01*
X143757200Y-98630951D02*
X143709580Y-98678570D01*
X143709580Y-98678570D02*
X143614342Y-98726189D01*
X143614342Y-98726189D02*
X143423866Y-98773808D01*
X143423866Y-98773808D02*
X143185771Y-98773808D01*
X143185771Y-98773808D02*
X142995295Y-98726189D01*
X142995295Y-98726189D02*
X142900057Y-98678570D01*
X142900057Y-98678570D02*
X142852438Y-98630951D01*
X142852438Y-98630951D02*
X142804819Y-98535713D01*
X143709580Y-97773808D02*
X143757200Y-97726189D01*
X143757200Y-97726189D02*
X143804819Y-97773808D01*
X143804819Y-97773808D02*
X143757200Y-97821427D01*
X143757200Y-97821427D02*
X143709580Y-97773808D01*
X143709580Y-97773808D02*
X143804819Y-97773808D01*
X142804819Y-96821428D02*
X142804819Y-97297618D01*
X142804819Y-97297618D02*
X143281009Y-97345237D01*
X143281009Y-97345237D02*
X143233390Y-97297618D01*
X143233390Y-97297618D02*
X143185771Y-97202380D01*
X143185771Y-97202380D02*
X143185771Y-96964285D01*
X143185771Y-96964285D02*
X143233390Y-96869047D01*
X143233390Y-96869047D02*
X143281009Y-96821428D01*
X143281009Y-96821428D02*
X143376247Y-96773809D01*
X143376247Y-96773809D02*
X143614342Y-96773809D01*
X143614342Y-96773809D02*
X143709580Y-96821428D01*
X143709580Y-96821428D02*
X143757200Y-96869047D01*
X143757200Y-96869047D02*
X143804819Y-96964285D01*
X143804819Y-96964285D02*
X143804819Y-97202380D01*
X143804819Y-97202380D02*
X143757200Y-97297618D01*
X143757200Y-97297618D02*
X143709580Y-97345237D01*
D11*
X144500000Y-63000000D02*
X143913580Y-63000000D01*
X144500000Y-133500000D02*
X143913580Y-133500000D01*
X144500000Y-63000000D02*
X144500000Y-133500000D01*
X144500000Y-63000000D02*
X145086421Y-64126504D01*
X144500000Y-63000000D02*
X143913579Y-64126504D01*
X144500000Y-133500000D02*
X143913579Y-132373496D01*
X144500000Y-133500000D02*
X145086421Y-132373496D01*
X66500000Y-63000000D02*
X141500000Y-63000000D01*
X141500000Y-133500000D01*
X66500000Y-133500000D01*
X66500000Y-63000000D01*
D12*
%TO.C,J-Battery1*%
X109600000Y-69562500D02*
G75*
G02*
X108400000Y-69562500I-600000J0D01*
G01*
X108400000Y-69562500D02*
G75*
G02*
X109600000Y-69562500I600000J0D01*
G01*
%TO.C,J-Pump1*%
X78800000Y-120000000D02*
G75*
G02*
X77600000Y-120000000I-600000J0D01*
G01*
X77600000Y-120000000D02*
G75*
G02*
X78800000Y-120000000I600000J0D01*
G01*
%TO.C,J-TMP1*%
X85600000Y-69500000D02*
G75*
G02*
X84400000Y-69500000I-600000J0D01*
G01*
X84400000Y-69500000D02*
G75*
G02*
X85600000Y-69500000I600000J0D01*
G01*
%TD*%
M02*
