%TF.GenerationSoftware,KiCad,Pcbnew,9.0.5*%
%TF.CreationDate,2026-02-27T11:23:15-08:00*%
%TF.ProjectId,copyOfMainPCB,636f7079-4f66-44d6-9169-6e5043422e6b,rev?*%
%TF.SameCoordinates,Original*%
%TF.FileFunction,Copper,L2,Bot*%
%TF.FilePolarity,Positive*%
%FSLAX46Y46*%
G04 Gerber Fmt 4.6, Leading zero omitted, Abs format (unit mm)*
G04 Created by KiCad (PCBNEW 9.0.5) date 2026-02-27 11:23:15*
%MOMM*%
%LPD*%
G01*
G04 APERTURE LIST*
%TA.AperFunction,ComponentPad*%
%ADD10C,1.500000*%
%TD*%
%TA.AperFunction,ComponentPad*%
%ADD11C,2.500000*%
%TD*%
%TA.AperFunction,ComponentPad*%
%ADD12C,0.630000*%
%TD*%
%TA.AperFunction,SMDPad,CuDef*%
%ADD13R,3.300000X2.600000*%
%TD*%
%TA.AperFunction,ComponentPad*%
%ADD14R,1.270000X1.270000*%
%TD*%
%TA.AperFunction,ComponentPad*%
%ADD15C,1.270000*%
%TD*%
%TA.AperFunction,ComponentPad*%
%ADD16R,1.600000X1.600000*%
%TD*%
%TA.AperFunction,ComponentPad*%
%ADD17O,1.600000X1.600000*%
%TD*%
%TA.AperFunction,ViaPad*%
%ADD18C,0.600000*%
%TD*%
%TA.AperFunction,Conductor*%
%ADD19C,0.200000*%
%TD*%
G04 APERTURE END LIST*
D10*
%TO.P,J-Battery1,1,1*%
%TO.N,+BATT*%
X110800000Y-81362500D03*
%TO.P,J-Battery1,2,2*%
X107200000Y-81362500D03*
%TO.P,J-Battery1,3,3*%
%TO.N,GND*%
X110800000Y-77762500D03*
%TO.P,J-Battery1,4,4*%
%TO.N,GNDPWR*%
X107200000Y-77762500D03*
D11*
%TO.P,J-Battery1,SH1,SHIELD*%
X116500000Y-70562500D03*
%TO.P,J-Battery1,SH2,SHIELD__1*%
X101500000Y-70562500D03*
%TD*%
D12*
%TO.P,U2,9,GND*%
%TO.N,GNDPWR*%
X125900000Y-121300000D03*
X127200000Y-121300000D03*
X128500000Y-121300000D03*
D13*
%TO.N,GND*%
X127200000Y-120650000D03*
D12*
%TO.N,GNDPWR*%
X125900000Y-120000000D03*
%TO.N,GND*%
X127200000Y-120000000D03*
%TO.N,GNDPWR*%
X128500000Y-120000000D03*
%TD*%
D10*
%TO.P,J-Pump1,1,1*%
%TO.N,DRV*%
X90000000Y-118200000D03*
%TO.P,J-Pump1,2,2*%
%TO.N,RTN*%
X90000000Y-121800000D03*
%TO.P,J-Pump1,3,3*%
%TO.N,GND*%
X86400000Y-118200000D03*
%TO.P,J-Pump1,4,4*%
X86400000Y-121800000D03*
D11*
%TO.P,J-Pump1,SH1,SHIELD*%
%TO.N,GNDPWR*%
X79200000Y-112500000D03*
%TO.P,J-Pump1,SH2,SHIELD__1*%
X79200000Y-127500000D03*
%TD*%
D14*
%TO.P,C4,1*%
%TO.N,Net-(D8-K)*%
X128855600Y-82660400D03*
D15*
%TO.P,C4,2*%
%TO.N,GND*%
X133935600Y-82660400D03*
%TD*%
D16*
%TO.P,A2,1,D1/TX*%
%TO.N,unconnected-(A2-D1{slash}TX-Pad1)*%
X78500000Y-104000000D03*
D17*
%TO.P,A2,2,D0/RX*%
%TO.N,unconnected-(A2-D0{slash}RX-Pad2)*%
X81040000Y-104000000D03*
%TO.P,A2,3,~{RESET}*%
%TO.N,unconnected-(A2-~{RESET}-Pad3)*%
X83580000Y-104000000D03*
%TO.P,A2,4,GND*%
%TO.N,GND*%
X86120000Y-104000000D03*
%TO.P,A2,5,D2*%
%TO.N,Net-(A2-D2)*%
X88660000Y-104000000D03*
%TO.P,A2,6,D3*%
%TO.N,Net-(A2-D3)*%
X91200000Y-104000000D03*
%TO.P,A2,7,D4*%
%TO.N,Net-(A2-D4)*%
X93740000Y-104000000D03*
%TO.P,A2,8,D5*%
%TO.N,Net-(A2-D5)*%
X96280000Y-104000000D03*
%TO.P,A2,9,D6*%
%TO.N,Net-(A2-D6)*%
X98820000Y-104000000D03*
%TO.P,A2,10,D7*%
%TO.N,Net-(A2-D7)*%
X101360000Y-104000000D03*
%TO.P,A2,11,D8*%
%TO.N,Net-(A2-D8)*%
X103900000Y-104000000D03*
%TO.P,A2,12,D9*%
%TO.N,Net-(A2-D9)*%
X106440000Y-104000000D03*
%TO.P,A2,13,D10/CS*%
%TO.N,unconnected-(A2-D10{slash}CS-Pad13)*%
X108980000Y-104000000D03*
%TO.P,A2,14,D11/COPI*%
%TO.N,unconnected-(A2-D11{slash}COPI-Pad14)*%
X111520000Y-104000000D03*
%TO.P,A2,15,D12/CIPO*%
%TO.N,unconnected-(A2-D12{slash}CIPO-Pad15)*%
X114060000Y-104000000D03*
%TO.P,A2,16,D13/SCK*%
%TO.N,unconnected-(A2-D13{slash}SCK-Pad16)*%
X114060000Y-88760000D03*
%TO.P,A2,17,3V3*%
%TO.N,+3.3V*%
X111520000Y-88760000D03*
%TO.P,A2,18,B0*%
%TO.N,unconnected-(A2-B0-Pad18)*%
X108980000Y-88760000D03*
%TO.P,A2,19,A0*%
%TO.N,unconnected-(A2-A0-Pad19)*%
X106440000Y-88760000D03*
%TO.P,A2,20,A1*%
%TO.N,PWM*%
X103900000Y-88760000D03*
%TO.P,A2,21,A2*%
%TO.N,Net-(A2-A2)*%
X101360000Y-88760000D03*
%TO.P,A2,22,A3*%
%TO.N,Net-(A2-A3)*%
X98820000Y-88760000D03*
%TO.P,A2,23,SDA/A4*%
%TO.N,SDA*%
X96280000Y-88760000D03*
%TO.P,A2,24,SCL/A5*%
%TO.N,SCL*%
X93740000Y-88760000D03*
%TO.P,A2,25,A6*%
%TO.N,unconnected-(A2-A6-Pad25)*%
X91200000Y-88760000D03*
%TO.P,A2,26,A7*%
%TO.N,unconnected-(A2-A7-Pad26)*%
X88660000Y-88760000D03*
%TO.P,A2,27,VUSB/5V*%
%TO.N,unconnected-(A2-VUSB{slash}5V-Pad27)*%
X86120000Y-88760000D03*
%TO.P,A2,28,B1*%
%TO.N,unconnected-(A2-B1-Pad28)*%
X83580000Y-88760000D03*
%TO.P,A2,29,GND*%
%TO.N,GND*%
X81040000Y-88760000D03*
%TO.P,A2,30,VIN*%
%TO.N,Net-(A2-VIN)*%
X78500000Y-88760000D03*
%TD*%
D14*
%TO.P,C2,1*%
%TO.N,Net-(A2-VIN)*%
X128815600Y-68500000D03*
D15*
%TO.P,C2,2*%
%TO.N,GND*%
X133895600Y-68500000D03*
%TD*%
D10*
%TO.P,J-TMP1,1,1*%
%TO.N,GND*%
X86800000Y-81300000D03*
%TO.P,J-TMP1,2,2*%
%TO.N,+3.3V*%
X83200000Y-81300000D03*
%TO.P,J-TMP1,3,3*%
%TO.N,SDA*%
X86800000Y-77700000D03*
%TO.P,J-TMP1,4,4*%
%TO.N,SCL*%
X83200000Y-77700000D03*
D11*
%TO.P,J-TMP1,SH1,SHIELD*%
%TO.N,GNDPWR*%
X92500000Y-70500000D03*
%TO.P,J-TMP1,SH2,SHIELD__1*%
X77500000Y-70500000D03*
%TD*%
D18*
%TO.N,GND*%
X95000000Y-120000000D03*
%TO.N,GNDPWR*%
X126584000Y-115000000D03*
%TD*%
D19*
%TO.N,GND*%
X110800000Y-77762500D02*
X107200000Y-77762500D01*
X77399000Y-110699000D02*
X77399000Y-70601000D01*
X86120000Y-104000000D02*
X86120000Y-104120000D01*
X81040000Y-88760000D02*
X81040000Y-87060000D01*
X77399000Y-70601000D02*
X77500000Y-70500000D01*
X114299000Y-68361500D02*
X116500000Y-70562500D01*
X84500000Y-125000000D02*
X90000000Y-125000000D01*
X79701000Y-68299000D02*
X90299000Y-68299000D01*
X101437500Y-70500000D02*
X101500000Y-70562500D01*
X90000000Y-125000000D02*
X95000000Y-120000000D01*
X109436050Y-82579000D02*
X87221000Y-82579000D01*
X92500000Y-70500000D02*
X101437500Y-70500000D01*
X87221000Y-82579000D02*
X81040000Y-88760000D01*
X79200000Y-127500000D02*
X80449999Y-126250001D01*
X103701000Y-68361500D02*
X114299000Y-68361500D01*
X80449999Y-113749999D02*
X79200000Y-112500000D01*
X80449999Y-126250001D02*
X80449999Y-113749999D01*
X84500000Y-105620000D02*
X84500000Y-125000000D01*
X110800000Y-76262500D02*
X110800000Y-77762500D01*
X86120000Y-104000000D02*
X84500000Y-105620000D01*
X109436050Y-79998550D02*
X109436050Y-82579000D01*
X116500000Y-70562500D02*
X110800000Y-76262500D01*
X90299000Y-68299000D02*
X92500000Y-70500000D01*
X107200000Y-77762500D02*
X109436050Y-79998550D01*
X79200000Y-112500000D02*
X77399000Y-110699000D01*
X101500000Y-70562500D02*
X103701000Y-68361500D01*
X77500000Y-70500000D02*
X79701000Y-68299000D01*
X81040000Y-87060000D02*
X86800000Y-81300000D01*
%TO.N,GNDPWR*%
X89600000Y-115000000D02*
X86400000Y-118200000D01*
X86400000Y-118200000D02*
X86400000Y-121800000D01*
X98000000Y-115000000D02*
X89600000Y-115000000D01*
X126584000Y-115000000D02*
X126584000Y-89584000D01*
X126584000Y-89584000D02*
X114762500Y-77762500D01*
X114762500Y-77762500D02*
X111201000Y-77762500D01*
X127200000Y-115616000D02*
X126584000Y-115000000D01*
X126584000Y-115000000D02*
X98000000Y-115000000D01*
X127200000Y-120650000D02*
X127200000Y-115616000D01*
%TD*%
M02*
